<?xml version="1.0" encoding="UTF-8"?>
<svg id="Layer_1" data-name="Layer 1" xmlns="http://www.w3.org/2000/svg" xmlns:xlink="http://www.w3.org/1999/xlink" viewBox="0 0 77.51 31.49">
  <defs>
    <style>
      .cls-1 {
        fill: url(#linear-gradient);
      }

      .cls-1, .cls-2, .cls-3, .cls-4 {
        stroke-width: 0px;
      }

      .cls-2 {
        fill: url(#linear-gradient-2);
      }

      .cls-3 {
        fill: url(#linear-gradient-3);
      }

      .cls-4 {
        fill: url(#linear-gradient-4);
      }
    </style>
    <linearGradient id="linear-gradient" x1="0" y1="18.63" x2="9.63" y2="18.63" gradientUnits="userSpaceOnUse">
      <stop offset="0" stop-color="#28abe2"/>
      <stop offset="1" stop-color="#00a64f"/>
    </linearGradient>
    <linearGradient id="linear-gradient-2" x1="68.87" y1="18.5" x2="77.51" y2="18.5" xlink:href="#linear-gradient"/>
    <linearGradient id="linear-gradient-3" x1="54.07" y1="18.15" x2="66.11" y2="18.15" gradientTransform="translate(-2.53 22.55) rotate(-20.83)" xlink:href="#linear-gradient"/>
    <linearGradient id="linear-gradient-4" x1="-11.2" y1="16.5" x2="56.19" y2="16.5" gradientUnits="userSpaceOnUse">
      <stop offset="0" stop-color="#28abe2"/>
      <stop offset=".3" stop-color="#1ca9b9"/>
      <stop offset=".98" stop-color="#00a652"/>
      <stop offset="1" stop-color="#00a64f"/>
    </linearGradient>
  </defs>
  <path class="cls-1" d="M9,11.07h0c.61.6.62,1.58.03,2.19l-4.21,4.32c-.6.61-.59,1.59.03,2.19l4.31,4.21c.61.6.62,1.58.03,2.19h0c-.6.61-1.58.62-2.19.03L.47,19.81c-.61-.6-.62-1.58-.03-2.19l6.37-6.53c.6-.61,1.58-.62,2.19-.03Z"/>
  <g>
    <path class="cls-2" d="M69.29,25.32h0c-.55-.55-.55-1.43,0-1.98l3.85-3.85c.55-.55.55-1.43,0-1.98l-3.85-3.85c-.55-.55-.55-1.43,0-1.98h0c.55-.55,1.43-.55,1.98,0l5.83,5.84c.55.55.55,1.43,0,1.98l-5.83,5.84c-.55.55-1.43.55-1.98,0Z"/>
    <rect class="cls-3" x="58.56" y="4" width="3.06" height="28.31" rx="1.53" ry="1.53" transform="translate(10.38 -20.18) rotate(20.83)"/>
  </g>
  <g>
    <path class="cls-4" d="M15.82,13.94h1.97v6.7c0,1.18-.07,2.18-.21,2.99-.14.81-.4,1.46-.79,1.96s-.92.86-1.61,1.08c-.68.22-1.56.34-2.63.34v-1.99c.78,0,1.4-.08,1.84-.25.44-.17.77-.44.98-.82.22-.38.34-.86.38-1.44.04-.58.06-1.29.06-2.12v-6.43Z"/>
    <path class="cls-4" d="M24.94,5.09c-.19.32-.43.52-.72.6s-.52.12-.7.12c-1.14,0-1.7-.65-1.7-1.94v-1.63h1.1v1.49c0,.67.23,1.01.7,1.01.18,0,.34-.06.5-.18.16-.12.24-.39.24-.8v-1.08h1.1v1.06c0,.42.08.68.24.79.16.11.32.17.48.17.29,0,.47-.08.55-.23.08-.15.12-.37.12-.66v-1.56h1.1v1.63c0,.67-.13,1.16-.4,1.48s-.68.47-1.24.47c-.24,0-.48-.05-.73-.16-.25-.1-.47-.29-.66-.56ZM27.85,8.04l-5.76.82v-1.08l5.76-.82v1.08Z"/>
    <path class="cls-4" d="M29.6,21.98c-.06.98-.27,1.78-.61,2.42-.34.64-.81,1.15-1.4,1.54-.59.38-1.3.66-2.12.82-.82.16-1.74.24-2.75.24h-1.01v-1.99h.74c.75,0,1.44-.04,2.06-.11s1.16-.22,1.62-.43c.46-.22.82-.52,1.08-.92.26-.4.4-.92.42-1.56h-2.71c-.66,0-1.26-.07-1.81-.22-.55-.14-1.03-.38-1.44-.71-.41-.33-.73-.76-.96-1.28s-.35-1.18-.35-1.97c0-.66.11-1.3.32-1.92.22-.62.53-1.18.94-1.66.41-.48.9-.87,1.49-1.16.58-.3,1.25-.44,2-.44.83,0,1.54.15,2.11.44.58.3,1.04.72,1.4,1.26.36.54.62,1.2.78,1.97.16.77.24,1.62.24,2.57v1.13h1.68c.64,0,.96.32.96.96,0,.4-.08.67-.23.82s-.4.22-.73.22h-1.73ZM22.28,17.62c0,.82.24,1.42.71,1.8.47.38,1.16.58,2.08.58h2.57v-1.58c0-1.18-.2-2.13-.6-2.83-.4-.7-1.09-1.06-2.06-1.06-.46,0-.86.09-1.2.28-.34.18-.61.42-.83.72-.22.3-.38.63-.49,1-.11.37-.17.74-.17,1.1Z"/>
    <path class="cls-4" d="M31.33,21.98c-.64,0-.96-.32-.96-.96,0-.4.08-.67.23-.82.15-.14.4-.22.73-.22h3.55c.64,0,.96.32.96.96,0,.4-.08.67-.23.82-.15.14-.4.22-.73.22h-3.55Z"/>
    <path class="cls-4" d="M34.88,21.98c-.64,0-.96-.32-.96-.96,0-.4.08-.67.23-.82.15-.14.4-.22.73-.22h3.55c.64,0,.96.32.96.96,0,.4-.08.67-.23.82-.15.14-.4.22-.73.22h-3.55Z"/>
    <path class="cls-4" d="M44.91,1.08l-5.76.82V.82l5.76-.82v1.08Z"/>
    <path class="cls-4" d="M38.43,21.98c-.64,0-.96-.32-.96-.96,0-.4.08-.67.23-.82.15-.14.4-.22.73-.22h2.71V4.85h1.97v11.76c.82-1.33,1.77-2.36,2.87-3.08,1.1-.73,2.37-1.09,3.83-1.09,1.55,0,2.76.49,3.64,1.46s1.31,2.32,1.31,4.05v4.05h-16.32ZM52.78,19.99v-1.61c0-.54-.06-1.06-.17-1.55-.11-.49-.3-.91-.58-1.26-.27-.35-.63-.63-1.07-.84-.44-.21-.98-.31-1.62-.31-.77,0-1.48.18-2.14.53-.66.35-1.25.8-1.78,1.33-.53.54-.99,1.13-1.38,1.79-.39.66-.71,1.3-.95,1.92h9.67Z"/>
  </g>
</svg>